<?xml version="1.0" encoding="utf-8" ?>
<svg xmlns="http://www.w3.org/2000/svg" xmlns:xlink="http://www.w3.org/1999/xlink" width="394" height="100">
	<path fill="#FEFEFE" d="M368.666 1.62486C371.075 1.23208 373.884 1.50136 376.342 1.50172L391.957 1.47408Q391.984 1.78721 391.939 2.09823C391.694 3.73368 389.554 6.39046 388.655 7.83023C384.739 14.1029 380.386 20.1482 376.624 26.5037C375.524 28.3609 373.416 33.2363 371.843 34.4272C371.842 34.5819 371.829 34.7348 371.788 34.8845C371.423 36.1943 368.054 41.0293 366.954 41.6802C366.745 40.7129 356.146 23.234 355.29 22.4867C356.962 21.3184 367.066 4.67914 368.666 1.62486Z"/>
	<path fill="#FEFEFE" d="M288.785 29.8748C291.16 29.4967 293.923 29.7468 296.342 29.7494Q303.669 29.7218 310.995 29.8411C311.008 29.8502 311.022 29.859 311.036 29.8682C311.875 30.4393 331.023 60.0973 331.208 61.0571C331.232 61.1815 331.255 61.3045 331.266 61.4308C331.447 61.3057 331.617 61.1597 331.759 60.9916C332.609 59.986 333.278 58.5571 333.972 57.4202L339.012 49.1725C342.441 43.5712 346.24 38.1389 349.495 32.445C349.849 31.826 350.283 31.207 350.234 30.4649Q350.58 30.6978 350.874 30.9943C351.238 31.3612 360.248 47.4282 361.073 49.122C361.26 49.5057 361.345 49.8412 361.344 50.2695C361.354 50.3485 361.358 50.4246 361.352 50.5044C361.266 51.6952 355.426 60.3262 354.33 61.2191C354.338 61.3016 354.34 61.3813 354.333 61.4642C354.129 63.8512 339.806 85.0401 337.425 88.8636C336.333 90.6162 332.341 98.0146 331.243 98.9526C331.233 97.1752 316.479 75.1888 314.686 72.2743C312.801 69.2083 311.201 65.972 309.283 62.9322L297.2 44.012C294.192 39.3082 291.189 34.9329 288.785 29.8748Z"/>
	<path fill="#FEFEFE" d="M38.5121 1.61776C48.7633 1.38147 59.071 1.61368 69.3276 1.61967Q88.5539 1.5135 107.78 1.61203C107.795 1.85322 107.778 2.11905 107.66 2.33491C106.931 3.66636 105.653 4.99382 104.736 6.21813C100.447 11.9466 95.718 17.1238 91.1351 22.5914C88.9615 25.1846 86.7544 27.7811 84.6868 30.4602C83.1481 32.454 81.7455 34.569 80.1147 36.4878C79.4613 37.2565 78.6956 38.1832 77.8266 38.7117C75.976 39.8373 70.6744 40.9854 68.4077 41.6972C63.4539 43.2529 58.5542 44.9843 53.603 46.5545L41.2834 50.5473C49.2236 41.2513 57.1471 32.0651 64.4583 22.2594C60.2725 22.8528 53.5111 22.3597 49.1006 22.3577C35.7979 22.3518 22.3712 21.9724 9.08777 22.5163C11.0192 20.2532 13.5263 18.5337 15.6761 16.4863C17.7265 14.5336 19.4879 12.272 21.4308 10.2113C26.4707 4.86582 31.0609 1.83839 38.5121 1.61776Z"/>
	<path fill="#FEFEFE" d="M66.0484 50.9914L66.3774 51.152C66.3585 52.2926 47.356 74.7105 44.7814 78.0184C54.7718 77.7609 64.8451 78.026 74.8446 78.0272C84.8213 78.0285 94.8574 77.7634 104.826 78.0713C104.82 78.8134 104.215 79.3626 103.722 79.8541C101.896 81.6744 99.9072 83.3605 98.0396 85.1445C94.1513 88.8586 87.0584 96.8954 81.7838 98.0947C77.1653 99.1447 67.6653 98.5289 62.625 98.5123L22.3898 98.5051C15.5508 98.5051 8.27653 98.0101 1.48327 98.7338C6.65506 92.1141 12.2255 85.866 17.5849 79.4119C20.747 75.6039 29.8941 62.8662 33.2987 61.0901C35.2814 60.0558 38.1646 59.6478 40.3261 58.9717C48.8863 56.2938 57.5716 53.918 66.0484 50.9914Z"/>
	<path fill="#FEFEFE" d="M207.623 1.62475C211.449 1.2381 215.612 1.55435 219.473 1.55716L243.777 1.58042L274.528 1.58948C280.541 1.57647 286.662 1.31869 292.659 1.67653C292.958 1.81044 293.191 1.99149 293.395 2.2471C296.194 5.74702 298.483 10.1386 300.914 13.9349C302.558 16.5033 304.523 18.9474 306.048 21.576C306.238 21.9034 306.283 22.1958 306.24 22.5735C302.583 22.4211 298.869 22.5481 295.207 22.5441L273.688 22.5222L227.94 22.5223C227.947 22.5351 227.956 22.5475 227.963 22.5606C227.975 22.5822 227.985 22.6047 227.997 22.6263C228.154 22.9053 228.3 23.1723 228.352 23.4941C228.628 25.2184 228.875 30.251 227.878 31.6768Q227.87 31.8532 227.833 32.0258C227.532 33.4021 208.836 53.5764 207.167 54.6065C207.195 54.5564 207.221 54.5066 207.243 54.4538C207.256 54.4237 207.268 54.3931 207.281 54.3629C208.13 52.3801 207.795 7.44285 207.623 1.62475Z"/>
	<path fill="#FEFEFE" d="M230.935 39.8747C234.486 39.2725 239.663 39.7171 243.345 39.7165L270.911 39.7474C270.899 39.9476 270.865 40.1618 270.785 40.3471C269.916 42.3517 253.088 59.6574 250.968 60.4434C248.433 60.7895 245.616 60.5552 243.05 60.5501L227.958 60.5363C228.118 60.7728 228.244 61.0463 228.298 61.3283C228.646 63.1318 228.711 76.1148 227.969 77.2501C233.625 77.2558 289.962 76.9513 291.022 77.4954C290.933 78.0676 290.755 78.1206 290.328 78.4824C290.289 78.9105 289.841 79.3714 289.557 79.6758C288.006 81.3382 286.185 82.825 284.563 84.4316C281.211 87.7534 277.957 91.1739 274.619 94.5108C273.606 95.5237 271.527 97.9774 270.189 98.3233C267.741 98.9564 256.831 98.4991 253.527 98.4988L207.266 98.497C207.401 98.275 207.531 98.0288 207.588 97.7727C208.076 95.611 207.679 90.9912 207.681 88.4633C207.684 81.4608 208.017 74.2702 207.633 67.2937C207.613 66.9298 207.495 66.6221 207.31 66.3103C208.364 65.5641 209.182 64.227 210.086 63.2899C214.379 58.8373 228.783 44.3836 230.935 39.8747Z"/>
	<path fill="#FEFEFE" d="M111.009 1.62456C113.892 1.45653 116.856 1.61892 119.747 1.62189L136.461 1.60435C142.48 1.59819 148.69 1.31027 154.68 1.94828C165.541 3.10507 176.301 8.42539 184.026 16.1426C192.695 24.8032 198.187 37.4041 198.187 49.6795C198.188 62.3334 193.211 75.0113 184.227 83.9956Q183.483 84.7367 182.709 85.4458Q181.934 86.1549 181.131 86.8306Q180.327 87.5063 179.496 88.1474Q178.664 88.7885 177.806 89.394Q176.948 89.9994 176.066 90.5681Q175.183 91.1367 174.277 91.6675Q173.371 92.1984 172.444 92.6905Q171.516 93.1826 170.569 93.635Q169.621 94.0875 168.655 94.4995Q167.69 94.9115 166.707 95.2823Q165.725 95.6532 164.728 95.9822Q163.731 96.3112 162.721 96.5978Q161.711 96.8844 160.689 97.128Q159.668 97.3717 158.637 97.5719Q157.606 97.7722 156.568 97.9287Q155.53 98.0853 154.486 98.1978C148.792 98.7715 142.952 98.5127 137.235 98.5083L110.511 98.5031C110.519 98.4854 110.527 98.4679 110.534 98.45C110.546 98.4201 110.556 98.3895 110.569 98.3598C111.108 97.0579 111.017 68.8369 110.529 67.2438C110.686 67.1464 116.709 60.4627 116.833 60.2027C116.947 60.1529 117.06 60.099 117.166 60.0338C118.619 59.1398 130.799 45.3731 131.031 44.3543C131.194 44.6742 131.322 45.0264 131.396 45.3787C131.918 47.8815 131.508 53.3891 131.512 56.1648C131.524 62.6947 131.921 69.4844 131.484 75.9885C131.451 76.486 131.308 76.9156 131.031 77.3319C136.34 77.0611 141.758 77.4493 147.086 77.3925C156.166 77.2957 163.128 75.5097 169.641 68.8453C174.751 63.6169 177.441 57.1964 177.346 49.8677C177.247 42.3132 173.935 35.354 168.54 30.1156C166.521 28.1554 164.335 26.2852 161.761 25.0971C153.61 21.3343 139.896 22.5264 130.914 22.6666C130.95 22.7232 130.983 22.7794 131.014 22.8391C131.031 22.8723 131.047 22.9062 131.065 22.9389C131.209 23.1994 131.349 23.4608 131.388 23.7608C131.64 25.6939 132.032 31.5096 130.972 32.8848L130.917 33.3625C128.83 36.3626 112.187 54.7937 110.208 55.8226C110.485 55.3097 110.766 54.7514 110.822 54.1642C111.231 49.9497 110.877 45.3851 110.883 41.1325Q110.936 27.3565 110.817 13.5809C110.787 10.3338 110.215 4.53383 111.009 1.62456Z"/>
</svg>
